<svg width="512" height="512" viewBox="0 0 512 512" fill="none" xmlns="http://www.w3.org/2000/svg">
<rect width="512" height="512" rx="60" fill="#0070F3"/>
<g clip-path="url(#clip0_1_2)">
<path d="M428.214 65.9014C437.81 67.7606 445.021 71.0141 449.85 75.662C454.617 80.3098 457 85.7324 457 91.9296C457 102.155 454.152 109.592 448.457 114.239C442.7 118.887 433.631 120.746 421.25 119.817C393.393 117.648 371.633 116.161 355.971 115.355C340.371 114.611 319.881 114.085 294.5 113.775C283.048 170.789 272.524 228.113 262.929 285.746C259.524 306.817 255.964 331.203 252.25 358.904C248.536 386.668 246.06 409.07 244.821 426.113C244.202 435.099 240.488 441.978 233.679 446.749C226.869 451.583 218.667 454 209.071 454C198.857 454 190.964 451.521 185.393 446.563C179.821 441.606 177.036 435.099 177.036 427.042C177.036 419.606 178.212 407.273 180.564 390.045C182.855 372.879 185.548 354.845 188.643 335.944C192.048 317.042 194.679 300.62 196.536 286.676C199.94 263.127 203.81 239.732 208.143 216.493C212.476 193.254 216.81 171.254 221.143 150.493C222.071 145.845 223.155 140.484 224.393 134.411C225.631 128.4 227.024 121.676 228.571 114.239C198.238 115.169 174.405 117.648 157.071 121.676C139.738 125.704 127.45 131.344 120.207 138.594C112.902 145.907 109.25 155.296 109.25 166.761C109.25 177.296 112.345 187.366 118.536 196.972C119.774 199.141 120.393 201.465 120.393 203.944C120.393 209.831 116.926 215.316 109.993 220.397C102.998 225.541 95.7857 228.113 88.3571 228.113C83.0952 228.113 78.7619 226.563 75.3571 223.465C69.1667 218.197 64.0595 210.668 60.0357 200.876C56.0119 191.146 54 180.085 54 167.69C54 141.352 62.6048 120.189 79.8143 104.2C96.9619 88.2732 123.117 76.5915 158.279 69.1549C193.379 61.7183 238.476 58 293.571 58C327.619 58 354.795 58.6197 375.1 59.8591C395.343 61.0986 413.048 63.1127 428.214 65.9014Z" fill="white"/>
</g>
<defs>
<clipPath id="clip0_1_2">
<rect width="403" height="396" fill="white" transform="translate(54 58)"/>
</clipPath>
</defs>
</svg>
